STARTFONT 2.1
FONT -Monotype-Bookman Old Style-Bold-R-Normal--33-240-100-100-P-176-iso8859-4
SIZE 24 100 100
FONTBOUNDINGBOX 50 41 -6 -9

STARTPROPERTIES 24
FOUNDRY "Monotype"
FAMILY_NAME "Bookman Old Style"
WEIGHT_NAME "Bold"
SLANT "R"
SETWIDTH_NAME "Normal"
ADD_STYLE_NAME ""
PIXEL_SIZE 33
POINT_SIZE 240
RESOLUTION_X 100
RESOLUTION_Y 100
SPACING "P"
AVERAGE_WIDTH 176
CHARSET_REGISTRY "iso8859"
CHARSET_ENCODING "4"
FACE_NAME "Bookman Old Style Bold ISO Latin4"
_DEC_DEVICE_FONTNAMES "PS=bookmanoldstyle-b-lat4"
COPYRIGHT "Copyright (c) 1993 Monotype Typography Ltd."
CAP_HEIGHT 27
X_HEIGHT 19
WEIGHT 10
QUAD_WIDTH 24
DEFAULT_CHAR 160
FONT_DESCENT 9
FONT_ASCENT 32
ENDPROPERTIES

CHARS 191

STARTCHAR space
ENCODING 32
SWIDTH 340 0
DWIDTH 11 0
BBX 0 0 0 0
BITMAP
ENDCHAR

STARTCHAR exclam
ENCODING 33
SWIDTH 360 0
DWIDTH 12 0
BBX 6 23 3 0
BITMAP
30
FC
FC
FC
FC
FC
FC
78
78
78
78
78
78
78
78
78
00
78
FC
FC
FC
7C
78
ENDCHAR

STARTCHAR quotedbl
ENCODING 34
SWIDTH 420 0
DWIDTH 14 0
BBX 10 9 2 14
BITMAP
6180
F3C0
F3C0
F3C0
F3C0
6180
6180
6180
6180
ENDCHAR

STARTCHAR numbersign
ENCODING 35
SWIDTH 600 0
DWIDTH 20 0
BBX 16 22 2 0
BITMAP
071C
071C
071C
0738
0638
0E38
7FFF
7FFF
7FFF
0E38
0E70
0E70
FFFE
FFFE
FFFE
1C70
1C70
1CE0
18E0
38E0
38E0
38E0
ENDCHAR

STARTCHAR dollar
ENCODING 36
SWIDTH 660 0
DWIDTH 22 0
BBX 19 30 2 -4
BITMAP
00E000
00E000
00E000
03E000
1FFB00
3FFF80
7FFF80
7EFF80
F8EF80
F8E7C0
FCE3C0
FF61C0
7FE000
7FFE00
1FFF00
0FFF80
01FFC0
E0FFE0
F0E7E0
F0E3E0
F8E3E0
FCE3E0
7FEFC0
7FFF80
67FE00
00F000
00E000
00E000
00E000
00E000
ENDCHAR

STARTCHAR percent
ENCODING 37
SWIDTH 940 0
DWIDTH 31 0
BBX 29 23 1 0
BITMAP
1F800E00
3FC01C00
79E01800
70F03800
F0F07000
F0F06000
F0F0E000
F0F0C000
70F1C000
79E38000
3FC30000
1F870FC0
00061FE0
000E3CF0
001C7878
00187878
00387878
00307878
00707878
00E07878
00C03CF0
01C01FE0
03800FC0
ENDCHAR

STARTCHAR ampersand
ENCODING 38
SWIDTH 800 0
DWIDTH 26 0
BBX 25 23 1 0
BITMAP
03E00000
0FF80000
0FFC0000
1E3C0000
1E3C0000
1E3C0000
1E3C0000
0FF80000
07E1FE00
1FF1FE00
3FF9FE00
7E7C7000
7C3E7000
FC3EF000
F81F6700
F81FEF80
FC1FEF80
FC1FC780
FE0FC780
7FFFEF80
3FFFFF00
1FFDFE00
07F0FC00
ENDCHAR

STARTCHAR quoteright
ENCODING 39
SWIDTH 320 0
DWIDTH 11 0
BBX 7 12 2 12
BITMAP
38
7C
FE
FE
7E
66
1E
1C
38
F8
70
20
ENDCHAR

STARTCHAR parenleft
ENCODING 40
SWIDTH 320 0
DWIDTH 11 0
BBX 7 31 2 -8
BITMAP
04
0E
1E
3E
3C
7C
7C
7C
78
F8
F8
F8
F8
F8
F8
F8
F8
F8
F8
F8
F8
F8
78
7C
7C
7C
3C
3E
1E
0E
04
ENDCHAR

STARTCHAR parenright
ENCODING 41
SWIDTH 320 0
DWIDTH 11 0
BBX 7 31 2 -8
BITMAP
20
E0
F0
F8
78
7C
7C
3C
3E
3E
3E
3E
3E
3E
3E
3E
3E
3E
3E
3E
3E
3E
3E
3C
7C
7C
78
F8
F0
E0
20
ENDCHAR

STARTCHAR asterisk
ENCODING 42
SWIDTH 460 0
DWIDTH 15 0
BBX 14 14 1 9
BITMAP
0300
0780
0780
0780
6318
FB7C
FFFC
7FF8
0780
0EC0
1CE0
3CF0
3CF0
1860
ENDCHAR

STARTCHAR plus
ENCODING 43
SWIDTH 600 0
DWIDTH 20 0
BBX 16 15 2 4
BITMAP
0380
0380
0380
0380
0380
0380
FFFF
FFFF
FFFF
0380
0380
0380
0380
0380
0380
ENDCHAR

STARTCHAR comma
ENCODING 44
SWIDTH 340 0
DWIDTH 11 0
BBX 6 12 3 -6
BITMAP
70
F8
FC
FC
FC
6C
1C
38
78
F0
E0
40
ENDCHAR

STARTCHAR minus
ENCODING 45
SWIDTH 600 0
DWIDTH 20 0
BBX 16 3 2 10
BITMAP
FFFF
FFFF
FFFF
ENDCHAR

STARTCHAR period
ENCODING 46
SWIDTH 340 0
DWIDTH 11 0
BBX 6 6 3 0
BITMAP
78
FC
FC
FC
7C
78
ENDCHAR

STARTCHAR slash
ENCODING 47
SWIDTH 600 0
DWIDTH 20 0
BBX 14 29 2 -5
BITMAP
003C
003C
007C
0078
0078
00F8
00F0
00F0
01F0
01E0
01E0
03E0
03C0
03C0
07C0
0780
0780
0F80
0F00
1F00
1F00
1E00
3E00
3E00
3C00
7C00
7800
7800
F800
ENDCHAR

STARTCHAR zero
ENCODING 48
SWIDTH 660 0
DWIDTH 22 0
BBX 20 23 1 0
BITMAP
01F800
07FE00
1FFF80
1FFFC0
3F0FC0
7E07E0
7E03E0
7C03E0
FC03F0
FC03F0
FC03F0
FC03F0
FC03F0
FC03F0
FC03F0
7C03E0
7E07E0
7E07E0
3F0FC0
1FFF80
1FFF80
07FE00
01F800
ENDCHAR

STARTCHAR one
ENCODING 49
SWIDTH 660 0
DWIDTH 22 0
BBX 14 23 4 0
BITMAP
00C0
0FC0
FFC0
FFC0
FFC0
07C0
07C0
07C0
07C0
07C0
07C0
07C0
07C0
07C0
07C0
07C0
07C0
07C0
07C0
07C0
FFFC
FFFC
FFFC
ENDCHAR

STARTCHAR two
ENCODING 50
SWIDTH 660 0
DWIDTH 22 0
BBX 18 24 2 -1
BITMAP
03F800
1FFE00
3FFF00
7FFF80
7C3F80
F01FC0
E00FC0
E00FC0
E00FC0
800F80
001F80
003F00
007E00
00FC00
01F800
03E1C0
0FC1C0
1E01C0
3FFFC0
FFFFC0
FFFF80
FFFF80
FFFF80
000180
ENDCHAR

STARTCHAR three
ENCODING 51
SWIDTH 660 0
DWIDTH 22 0
BBX 19 23 1 0
BITMAP
03F800
0FFF00
1FFF80
3FFF80
3E1FC0
380FC0
7807C0
7807C0
000F80
001F80
01FC00
01FE00
01FF80
001FC0
0007E0
7807E0
F807E0
FC07E0
FC0FC0
7F1FC0
3FFF80
1FFF00
07FC00
ENDCHAR

STARTCHAR four
ENCODING 52
SWIDTH 660 0
DWIDTH 22 0
BBX 20 23 1 0
BITMAP
001F00
003F00
007F00
00FF00
01FF00
03FF00
07DF00
0F9F00
1F1F00
3E1F00
3C1F00
7C1F00
F01F00
FFFFF0
FFFFF0
FFFFF0
FFFFF0
001F00
001F00
001F00
001F00
001F00
001F00
ENDCHAR

STARTCHAR five
ENCODING 53
SWIDTH 660 0
DWIDTH 22 0
BBX 18 24 3 0
BITMAP
000380
7FFF80
7FFF80
7FFF80
7FFF80
7FFF80
780000
780000
780000
7FF800
7FFE00
7FFF00
7FFF80
403FC0
000FC0
0007C0
F007C0
F007C0
F807C0
FC0F80
FE3F80
7FFF00
3FFE00
0FF800
ENDCHAR

STARTCHAR six
ENCODING 54
SWIDTH 660 0
DWIDTH 22 0
BBX 20 23 1 0
BITMAP
000F80
00FF80
03FF80
0FF800
1FC000
3F0000
7E0000
7E7C00
7DFF00
FFFFC0
FFFFE0
FF0FE0
FE07F0
FC03F0
FC03F0
FC03F0
7C03F0
7E07E0
3F0FE0
3FFFC0
1FFF80
07FF00
01F800
ENDCHAR

STARTCHAR seven
ENCODING 55
SWIDTH 660 0
DWIDTH 22 0
BBX 20 24 1 0
BITMAP
380000
3FFFF0
3FFFF0
3FFFF0
7FFFF0
7FFFE0
7003C0
700780
F00F00
101F00
003E00
003C00
007C00
00FC00
00F800
00F800
01F800
01F000
01F000
03F000
03F000
03F000
03F000
03E000
ENDCHAR

STARTCHAR eight
ENCODING 56
SWIDTH 660 0
DWIDTH 22 0
BBX 19 23 1 0
BITMAP
01F800
0FFE00
1FFF80
3FFF80
7E0FC0
7C07C0
7C07C0
7F0FC0
7FDF80
3FFD00
1FFE00
07FF80
1FFFC0
3F7FE0
7C0FE0
F807E0
F803E0
F803E0
FC07C0
7FFFC0
3FFF80
1FFE00
03F800
ENDCHAR

STARTCHAR nine
ENCODING 57
SWIDTH 660 0
DWIDTH 22 0
BBX 20 23 1 0
BITMAP
01F800
0FFE00
1FFF80
3FFFC0
7F0FE0
7E07E0
FC03E0
FC03F0
FC03F0
FC03F0
FE07F0
7F0FF0
7FFFF0
3FFFF0
0FFBE0
03C7E0
0007E0
000FC0
003F80
03FF00
1FFC00
1FF000
1F0000
ENDCHAR

STARTCHAR colon
ENCODING 58
SWIDTH 340 0
DWIDTH 11 0
BBX 6 16 3 0
BITMAP
78
FC
FC
FC
FC
30
00
00
00
00
30
FC
FC
FC
7C
78
ENDCHAR

STARTCHAR semicolon
ENCODING 59
SWIDTH 340 0
DWIDTH 11 0
BBX 7 22 3 -6
BITMAP
78
FC
FC
FC
FC
30
00
00
00
00
30
7C
FC
FE
FE
76
1C
3C
38
F8
70
60
ENDCHAR

STARTCHAR less
ENCODING 60
SWIDTH 600 0
DWIDTH 20 0
BBX 16 18 2 2
BITMAP
0003
000F
003F
00FE
03F8
0FE0
3F80
FE00
F000
FC00
7F00
1FC0
07F0
01FC
007F
001F
0003
0001
ENDCHAR

STARTCHAR equal
ENCODING 61
SWIDTH 600 0
DWIDTH 20 0
BBX 16 9 2 7
BITMAP
FFFF
FFFF
FFFF
0000
0000
0000
FFFF
FFFF
FFFF
ENDCHAR

STARTCHAR greater
ENCODING 62
SWIDTH 600 0
DWIDTH 20 0
BBX 16 18 2 2
BITMAP
8000
E000
FC00
7F00
1FC0
07F0
01FC
007F
000F
003F
00FE
03F8
0FE0
3F80
FE00
F000
C000
8000
ENDCHAR

STARTCHAR question
ENCODING 63
SWIDTH 660 0
DWIDTH 22 0
BBX 18 23 2 0
BITMAP
07E000
3FFC00
7FFE00
FFFF80
FC1F80
F80FC0
7007C0
0007C0
000FC0
001FC0
07FFC0
07FF80
07FF00
07FC00
070000
070000
000000
0F0000
1F8000
1F8000
1F8000
0F8000
0F0000
ENDCHAR

STARTCHAR at
ENCODING 64
SWIDTH 820 0
DWIDTH 27 0
BBX 28 29 0 -7
BITMAP
001FF000
00F01C00
01800600
07000100
0C000080
18000040
18000040
300F7820
201CB820
6038F820
6070F020
40F0F020
C0E0F020
C1E1E020
C1E1E020
C1C1E040
C3C3E040
C3C5C080
43CDC100
43FBC310
63F3CC10
21E1F020
30000020
10000040
08000080
04000300
03000600
00E03800
001FC000
ENDCHAR

STARTCHAR A
ENCODING 65
SWIDTH 720 0
DWIDTH 24 0
BBX 24 23 0 0
BITMAP
007E00
007E00
00FE00
00FF00
00FF00
01FF80
01EF80
01CF80
03CFC0
03CFC0
0787E0
0787E0
07FFE0
0FFFF0
0FFFF0
1E03F0
1E01F8
1E01F8
3C01FC
FF07FE
FF87FF
FF87FF
FF87FF
ENDCHAR

STARTCHAR B
ENCODING 66
SWIDTH 720 0
DWIDTH 24 0
BBX 21 23 2 0
BITMAP
FFFF00
FFFFC0
FFFFE0
3FFFF0
3F03F0
3F01F0
3F01F0
3F01F0
3F03F0
3F07E0
3FFF40
3FFF80
3FFFE0
3F03F0
3F01F8
3F01F8
3F01F8
3F01F8
3F03F8
3FFFF0
FFFFE0
FFFFC0
FFFE00
ENDCHAR

STARTCHAR C
ENCODING 67
SWIDTH 740 0
DWIDTH 24 0
BBX 23 23 1 0
BITMAP
00FC70
03FFB0
0FFFF0
1FFFF8
3F81F8
7F00F8
7E0078
7E003C
FC003C
FC0000
FC0000
FC0000
FC0000
FE0000
FE0000
7E0018
7F003E
3F807C
3FC1F8
1FFFF0
0FFFE0
03FF80
00FE00
ENDCHAR

STARTCHAR D
ENCODING 68
SWIDTH 780 0
DWIDTH 26 0
BBX 23 23 2 0
BITMAP
FFFE00
FFFFC0
FFFFE0
3FFFF0
3F03F8
3F01FC
3F00FC
3F00FE
3F007E
3F007E
3F007E
3F007E
3F007E
3F007E
3F007E
3F00FC
3F00FC
3F01F8
3F07F8
7FFFF0
FFFFE0
FFFF80
FFF800
ENDCHAR

STARTCHAR E
ENCODING 69
SWIDTH 720 0
DWIDTH 24 0
BBX 22 23 2 0
BITMAP
FFFFC0
FFFFC0
FFFFE0
3FFFE0
3F03E0
3F00F0
3F1CF0
3F1C78
3F1C40
3F3C00
3FFC00
3FFC00
3FFC00
3F1C00
3F1C3C
3F1C38
3F0078
3F00F8
3F03F0
3FFFF0
FFFFE0
FFFFE0
FFFFE0
ENDCHAR

STARTCHAR F
ENCODING 70
SWIDTH 680 0
DWIDTH 22 0
BBX 20 23 2 0
BITMAP
FFFFC0
FFFFC0
FFFFE0
3FFFE0
3F03E0
3F00F0
3F1C70
3F1C70
3F1C00
3F3C00
3FFC00
3FFC00
3FFC00
3F3C00
3F1C00
3F1C00
3F1C00
3F0000
3F0000
3F0000
FFC000
FFC000
FFC000
ENDCHAR

STARTCHAR G
ENCODING 71
SWIDTH 780 0
DWIDTH 26 0
BBX 24 23 2 0
BITMAP
00FC60
07FF60
0FFFF0
1FFFF0
3F83F0
7F00F0
7E00F8
7E0078
FC0020
FC0000
FC0000
FC07FF
FC07FF
FC07FF
FE00FC
7E00F8
7E00F8
7F00F8
3F81F8
1FFFF8
0FFFF8
03FF78
00FC38
ENDCHAR

STARTCHAR H
ENCODING 72
SWIDTH 820 0
DWIDTH 27 0
BBX 24 23 2 0
BITMAP
FFE7FF
FFE7FF
FFE7FF
3F00FC
3F00FC
3F00FC
3F00FC
3F00FC
3F00FC
3F00FC
3FFFFC
3FFFFC
3FFFFC
3F00FC
3F00FC
3F00FC
3F00FC
3F00FC
3F00FC
3F00FC
FFE7FF
FFE7FF
FFE7FF
ENDCHAR

STARTCHAR I
ENCODING 73
SWIDTH 400 0
DWIDTH 13 0
BBX 11 23 2 0
BITMAP
FFE0
FFE0
FFE0
3F00
3F00
3F00
3F00
3F00
3F00
3F00
3F00
3F00
3F00
3F00
3F00
3F00
3F00
3F00
3F00
3F00
FFE0
FFE0
FFE0
ENDCHAR

STARTCHAR J
ENCODING 74
SWIDTH 640 0
DWIDTH 21 0
BBX 21 23 0 0
BITMAP
003FF8
003FF8
003FF8
000FC0
000FC0
000FC0
000FC0
000FC0
000FC0
000FC0
000FC0
000FC0
100FC0
7C0FC0
FC0FC0
FC0FC0
FC0FC0
FC0F80
7E1F80
7FFF00
3FFF00
0FFC00
03F000
ENDCHAR

STARTCHAR K
ENCODING 75
SWIDTH 800 0
DWIDTH 26 0
BBX 25 23 2 0
BITMAP
FFE7FF00
FFE7FF00
FFE7FF00
3F01FC00
3F01F000
3F03E000
3F07C000
3F1F8000
3F3F0000
3F7E0000
3F7F0000
3FFF8000
3FFFC000
3FCFC000
3F8FE000
3F07F000
3F03F000
3F03F800
3F01FC00
3F00FE00
FFE7FF80
FFE7FF80
FFE7FF80
ENDCHAR

STARTCHAR L
ENCODING 76
SWIDTH 640 0
DWIDTH 21 0
BBX 20 23 2 0
BITMAP
FFE000
FFE000
FFE000
3F0000
3F0000
3F0000
3F0000
3F0000
3F0000
3F0000
3F0000
3F0000
3F0000
3F0040
3F00F0
3F00E0
3F01E0
3F03E0
3F0FC0
7FFFC0
FFFF80
FFFF80
FFFF80
ENDCHAR

STARTCHAR M
ENCODING 77
SWIDTH 940 0
DWIDTH 31 0
BBX 29 23 1 0
BITMAP
FFE03FF8
FFE03FF8
FFE03FF8
1FF03FE0
1EF07BC0
1EF077C0
1EF077C0
1EF8F7C0
1EF8F7C0
1EF8E7C0
1E7DE7C0
1E7DE7C0
1E7DC7C0
1E7DC7C0
1E3FC7C0
1E3F87C0
1E3F87C0
1E1F87C0
1E1F87C0
1E1F0FE0
FFDF3FF8
FFCF3FF8
FFCE3FF8
ENDCHAR

STARTCHAR N
ENCODING 78
SWIDTH 740 0
DWIDTH 24 0
BBX 23 23 1 0
BITMAP
FFC7FE
FFC7FE
FFE7FE
1FE0F0
1FF0F0
1FF0F0
1EF8F0
1EF8F0
1EFCF0
1E7CF0
1E7EF0
1E3EF0
1E3F70
1E1FF0
1E1FF0
1E0FF0
1E0FF0
1E07F0
1E07F0
1E03F0
FFC3F0
FFC1F0
FFC1F0
ENDCHAR

STARTCHAR O
ENCODING 79
SWIDTH 800 0
DWIDTH 26 0
BBX 24 23 1 0
BITMAP
007E00
03FFC0
0FFFF0
1FFFF8
3F81FC
7F00FE
7E007E
7E007F
FE003F
FC003F
FC003F
FC003F
FC003F
FC003F
FE007F
7E007F
7E007E
3F00FE
3F81FC
1FFFF8
0FFFF0
03FFC0
007E00
ENDCHAR

STARTCHAR P
ENCODING 80
SWIDTH 660 0
DWIDTH 22 0
BBX 20 23 2 0
BITMAP
FFFE00
FFFF80
FFFFC0
7FFFE0
3F07F0
3F03F0
3F03F0
3F03F0
3F03F0
3F07F0
3F1FE0
3FFFC0
3FFF80
3FFF00
3F0000
3F0000
3F0000
3F0000
3F0000
3F0000
FFC000
FFC000
FFC000
ENDCHAR

STARTCHAR Q
ENCODING 81
SWIDTH 800 0
DWIDTH 26 0
BBX 24 30 1 -7
BITMAP
007E00
03FFC0
0FFFF0
1FFFF8
3F81FC
3F00FE
7E007E
7E007E
FE007F
FC003F
FC003F
FC003F
FC003F
FC003F
FC003F
FE007F
7E007E
7F00FE
3F81FC
1FC3F8
0FFFF0
07FFE0
01FF80
007E00
007E00
003F06
003FFE
001FFF
000FFC
0003F0
ENDCHAR

STARTCHAR R
ENCODING 82
SWIDTH 780 0
DWIDTH 26 0
BBX 24 23 2 0
BITMAP
FFFF80
FFFFE0
FFFFF8
7FFFF8
3F01FC
3F00FC
3F00FC
3F00FC
3F00FC
3F03F8
3FFFF0
3FFFE0
3FFF80
3F3F00
3F1F80
3F1FC0
3F0FE0
3F07F0
3F03F8
3F03FC
FFE1FF
FFE0FF
FFE07F
ENDCHAR

STARTCHAR S
ENCODING 83
SWIDTH 660 0
DWIDTH 22 0
BBX 20 23 1 0
BITMAP
03F180
0FFFC0
1FFFC0
3FFFC0
7E0FC0
7C03E0
7C01E0
7F01E0
7FE080
3FFC00
1FFF80
0FFFC0
03FFE0
307FF0
F00FF0
7803F0
7C01F0
7E01F0
7F03E0
7FFFE0
3FFFC0
3BFF80
387C00
ENDCHAR

STARTCHAR T
ENCODING 84
SWIDTH 700 0
DWIDTH 23 0
BBX 23 24 1 0
BITMAP
380070
3FFFF0
7FFFF8
7FFFF8
7CFCF8
F8FC7C
F0FC3C
E0FC1E
E0FC1C
00FC00
00FC00
00FC00
00FC00
00FC00
00FC00
00FC00
00FC00
00FC00
00FC00
00FC00
00FC00
03FF80
03FF80
03FF80
ENDCHAR

STARTCHAR U
ENCODING 85
SWIDTH 740 0
DWIDTH 24 0
BBX 23 23 1 0
BITMAP
FFE7FE
FFE7FE
FFE7FE
3F00F0
3F00F0
3F00F0
3F00F0
3F00F0
3F00F0
3F00F0
3F00F0
3F00F0
3F00F0
3F00F0
3F00F0
3F00F0
3F00F0
1F81F0
1FC3E0
0FFFC0
07FFC0
03FF00
00FC00
ENDCHAR

STARTCHAR V
ENCODING 86
SWIDTH 720 0
DWIDTH 24 0
BBX 24 23 0 0
BITMAP
FFE1FF
FFE1FF
FFE1FF
3F007C
3F8078
1F8078
1F8078
1FC0F0
0FC0F0
0FC1F0
07E1E0
07E1E0
07E3C0
03F3C0
03F3C0
01F780
01FB80
01FF00
00FF00
00FF00
00FE00
007E00
007E00
ENDCHAR

STARTCHAR W
ENCODING 87
SWIDTH 940 0
DWIDTH 31 0
BBX 31 23 0 0
BITMAP
FFDFFBFE
FFDFFBFE
FFDFFBFE
3F0FE0F8
1F87E0F0
1F87E0F0
1F83E0F0
1F83E0F0
0FC3F1E0
0FC3F1E0
0FC3F1E0
07C7F3C0
07E7FBC0
07E7FBC0
07EEFBC0
03EEFF80
03F67F80
03FE7F80
01FC7F00
01FC7F00
01FC3F00
00F83F00
00F83E00
ENDCHAR

STARTCHAR X
ENCODING 88
SWIDTH 780 0
DWIDTH 26 0
BBX 26 23 0 0
BITMAP
7FF9FF80
7FF9FF80
7FF9FF80
1FE07E00
0FE0FC00
07F0F800
03F9F000
01FFE000
00FFC000
007F8000
007F0000
003F0000
007F8000
00FFC000
01FFE000
03E7F000
07C3F800
0F83FC00
1F81FE00
3F00FF00
FFC7FFC0
FFC7FFC0
FFC7FFC0
ENDCHAR

STARTCHAR Y
ENCODING 89
SWIDTH 700 0
DWIDTH 23 0
BBX 23 23 1 0
BITMAP
FFE3FE
FFE3FE
FFE3FE
7F80F8
3F81F0
1F81E0
1FC3E0
0FC3C0
07E780
07F780
03FF00
01FE00
01FE00
00FC00
00FC00
00FC00
00FC00
00FC00
00FC00
00FC00
03FF00
03FF00
03FF00
ENDCHAR

STARTCHAR Z
ENCODING 90
SWIDTH 640 0
DWIDTH 21 0
BBX 20 23 1 0
BITMAP
1FFFE0
3FFFE0
3FFFE0
7FEFC0
7C1FC0
781F80
F03F00
E07F00
E0FE00
00FC00
01F800
03F800
07F000
07E000
0FC060
1FC0F0
3F80E0
3F01E0
7F03E0
FE1FC0
FFFFC0
FFFFC0
FFFF80
ENDCHAR

STARTCHAR bracketleft
ENCODING 91
SWIDTH 300 0
DWIDTH 10 0
BBX 8 31 2 -8
BITMAP
FF
FF
FF
F8
F8
F8
F8
F8
F8
F8
F8
F8
F8
F8
F8
F8
F8
F8
F8
F8
F8
F8
F8
F8
F8
F8
F8
F8
FF
FF
FF
ENDCHAR

STARTCHAR backslash
ENCODING 92
SWIDTH 600 0
DWIDTH 20 0
BBX 14 29 2 -5
BITMAP
F800
7800
7C00
7C00
3C00
3E00
3E00
1E00
1F00
0F00
0F00
0F80
0780
0780
07C0
03C0
03C0
03E0
01E0
01E0
01F0
00F0
00F0
00F8
0078
0078
007C
003C
003C
ENDCHAR

STARTCHAR bracketright
ENCODING 93
SWIDTH 300 0
DWIDTH 10 0
BBX 8 31 0 -8
BITMAP
FF
FF
FF
1F
1F
1F
1F
1F
1F
1F
1F
1F
1F
1F
1F
1F
1F
1F
1F
1F
1F
1F
1F
1F
1F
1F
1F
1F
FF
FF
FF
ENDCHAR

STARTCHAR asciicircum
ENCODING 94
SWIDTH 600 0
DWIDTH 20 0
BBX 16 13 2 10
BITMAP
03C0
03C0
07E0
07E0
0F70
0E70
1E78
1C38
3C3C
381C
781E
700E
F00F
ENDCHAR

STARTCHAR underscore
ENCODING 95
SWIDTH 500 0
DWIDTH 17 0
BBX 17 2 0 -4
BITMAP
FFFF80
FFFF80
ENDCHAR

STARTCHAR quoteleft
ENCODING 96
SWIDTH 320 0
DWIDTH 11 0
BBX 6 12 2 12
BITMAP
08
1C
3C
78
70
E0
E8
FC
FC
FC
7C
38
ENDCHAR

STARTCHAR a
ENCODING 97
SWIDTH 580 0
DWIDTH 19 0
BBX 18 16 1 0
BITMAP
0FF000
3FFC00
7FFC00
7C7E00
7C3E00
783E00
007E00
0FFE00
3FFE00
7E3E00
FC3E00
F83E00
FCFE00
FFFFC0
7FDFC0
3F0FC0
ENDCHAR

STARTCHAR b
ENCODING 98
SWIDTH 600 0
DWIDTH 20 0
BBX 18 24 1 0
BITMAP
0E0000
FE0000
FE0000
FE0000
FE0000
3E0000
3E0000
3E0000
3E7C00
3EFE00
3FFF00
3FFF80
3F1F80
3E0FC0
3E0FC0
3E0FC0
3E0FC0
3E0FC0
3E0F80
3F1F80
3FFF80
3FFF00
3DFE00
3C7800
ENDCHAR

STARTCHAR c
ENCODING 99
SWIDTH 580 0
DWIDTH 19 0
BBX 17 16 1 0
BITMAP
07F800
1FFE00
3FFF00
3F1F80
7E1F80
7C0F80
FC0600
FC0000
FC0000
FC0000
7E0300
7F0780
3FFF80
1FFE00
0FFC00
03F000
ENDCHAR

STARTCHAR d
ENCODING 100
SWIDTH 640 0
DWIDTH 21 0
BBX 20 23 1 0
BITMAP
000380
003F80
007F80
007F80
007F80
000F80
000F80
07CF80
1FFF80
3FFF80
7FFF80
7E1F80
7C0F80
FC0F80
FC0F80
FC0F80
FC0F80
7C0F80
7E1F80
7FFFC0
3FFFF0
1FF7F0
07CFF0
ENDCHAR

STARTCHAR e
ENCODING 101
SWIDTH 580 0
DWIDTH 19 0
BBX 17 16 1 0
BITMAP
07F800
0FFE00
3FFF00
7E1F00
7C0F80
FFFF80
FFFF80
FFFF80
FC0000
FC0000
7E0300
7F0780
3FFF80
1FFF00
0FFC00
01F000
ENDCHAR

STARTCHAR f
ENCODING 102
SWIDTH 380 0
DWIDTH 13 0
BBX 14 24 2 0
BITMAP
07F0
0FF8
1FFC
3F7C
3E3C
3E10
3E00
3E00
FFC0
FFC0
FFC0
3E00
3E00
3E00
3E00
3E00
3E00
3E00
3E00
3E00
3E00
FFC0
FFC0
FFC0
ENDCHAR

STARTCHAR g
ENCODING 103
SWIDTH 580 0
DWIDTH 19 0
BBX 19 24 0 -7
BITMAP
0001C0
07F3E0
1FFFE0
3FFFC0
7E3E00
7C1F00
7C1F00
7C1F00
7E3F00
3FFE00
1FFC00
3FF000
780000
FF0000
7FFE00
7FFF80
1FFFC0
3FFFE0
7807E0
F803E0
FC07C0
7FFFC0
3FFF00
07F800
ENDCHAR

STARTCHAR h
ENCODING 104
SWIDTH 680 0
DWIDTH 22 0
BBX 20 23 2 0
BITMAP
0E0000
FE0000
FE0000
FE0000
3E0000
3E0000
3E0000
3E3C00
3FFF00
3FFF80
3FFF80
3F0F80
3E0F80
3E0F80
3E0F80
3E0F80
3E0F80
3E0F80
3E0F80
3E0F80
FFBFF0
FFBFF0
FFBFF0
ENDCHAR

STARTCHAR i
ENCODING 105
SWIDTH 360 0
DWIDTH 12 0
BBX 10 23 2 0
BITMAP
3C00
7E00
7E00
7E00
3E00
1C00
0000
0600
FE00
FE00
FE00
3E00
3E00
3E00
3E00
3E00
3E00
3E00
3E00
3E00
FFC0
FFC0
FFC0
ENDCHAR

STARTCHAR j
ENCODING 106
SWIDTH 340 0
DWIDTH 11 0
BBX 12 30 -3 -7
BITMAP
01E0
03F0
03F0
03F0
01E0
00C0
0000
0030
07F0
07F0
07F0
01F0
01F0
01F0
01F0
01F0
01F0
01F0
01F0
01F0
01F0
01F0
01F0
01F0
01F0
71F0
F9F0
FFE0
7FC0
3F80
ENDCHAR

STARTCHAR k
ENCODING 107
SWIDTH 660 0
DWIDTH 22 0
BBX 20 24 2 0
BITMAP
0E0000
FE0000
FE0000
FE0000
FE0000
3E0000
3E0000
3E0000
3E7FE0
3E7FE0
3E7FE0
3E1F80
3E3E00
3E7C00
3FF800
3FFC00
3FFC00
3FBE00
3E3F00
3E1F80
3E1FC0
FFBFF0
FFBFF0
FFBFF0
ENDCHAR

STARTCHAR l
ENCODING 108
SWIDTH 340 0
DWIDTH 11 0
BBX 10 24 1 0
BITMAP
0E00
FE00
FE00
FE00
FE00
3E00
3E00
3E00
3E00
3E00
3E00
3E00
3E00
3E00
3E00
3E00
3E00
3E00
3E00
3E00
3E00
FFC0
FFC0
FFC0
ENDCHAR

STARTCHAR m
ENCODING 109
SWIDTH 1000 0
DWIDTH 33 0
BBX 30 16 2 0
BITMAP
0C7C1F00
FDFF7FC0
FFFFFFE0
FFFFFFE0
3F0FC3E0
3E0F83E0
3E0F83E0
3E0F83E0
3E0F83E0
3E0F83E0
3E0F83E0
3E0F83E0
3E0F83E0
FFBFEFFC
FFBFEFFC
FFBFEFFC
ENDCHAR

STARTCHAR n
ENCODING 110
SWIDTH 680 0
DWIDTH 22 0
BBX 20 16 2 0
BITMAP
1C7C00
FDFF00
FFFF80
FFFF80
3F0F80
3E0F80
3E0F80
3E0F80
3E0F80
3E0F80
3E0F80
3E0F80
3E0F80
FFBFF0
FFBFF0
FFBFF0
ENDCHAR

STARTCHAR o
ENCODING 111
SWIDTH 620 0
DWIDTH 20 0
BBX 18 16 1 0
BITMAP
03F000
0FFC00
3FFF00
3FFF80
7E1F80
7C0FC0
FC0FC0
FC0FC0
FC0FC0
FC0FC0
7C0F80
7E1F80
3FFF00
1FFE00
0FFC00
03F000
ENDCHAR

STARTCHAR p
ENCODING 112
SWIDTH 640 0
DWIDTH 21 0
BBX 18 23 2 -7
BITMAP
0C7C00
FDFE00
FFFF00
FFFF80
3F1F80
3E0FC0
3E0FC0
3E0FC0
3E0FC0
3E0FC0
3E0F80
3F1F80
3FFF80
3FFF00
3FFE00
3E7800
3E0000
3E0000
3E0000
3E0000
FF8000
FF8000
FF8000
ENDCHAR

STARTCHAR q
ENCODING 113
SWIDTH 620 0
DWIDTH 20 0
BBX 20 23 1 -7
BITMAP
07C780
1FF780
3FFF80
3FFF80
7E1F80
7C0F80
FC0F80
FC0F80
FC0F80
FC0F80
7C0F80
7E1F80
7FFF80
3FFF80
1FFF80
07CF80
000F80
000F80
000F80
000F80
007FF0
007FF0
007FF0
ENDCHAR

STARTCHAR r
ENCODING 114
SWIDTH 460 0
DWIDTH 15 0
BBX 13 16 2 0
BITMAP
0E70
FEF8
FEF8
FFF8
FFF8
3E20
3E00
3E00
3E00
3E00
3E00
3E00
3E00
FFC0
FFC0
FFC0
ENDCHAR

STARTCHAR s
ENCODING 115
SWIDTH 520 0
DWIDTH 17 0
BBX 15 16 1 0
BITMAP
1FB8
3FF8
7FF8
F87C
F83C
FF10
7FC0
7FF8
1FFC
27FE
F0FE
F83E
FC3E
7FFC
7FF8
33F0
ENDCHAR

STARTCHAR t
ENCODING 116
SWIDTH 460 0
DWIDTH 15 0
BBX 13 22 1 0
BITMAP
0E00
0E00
1E00
1E00
3E00
7E00
FFF0
FFF0
FFF0
3E00
3E00
3E00
3E00
3E00
3E00
3E00
3E00
3F08
3FF8
1FF8
0FF8
03E0
ENDCHAR

STARTCHAR u
ENCODING 117
SWIDTH 660 0
DWIDTH 22 0
BBX 20 16 1 0
BITMAP
FE3F80
FE3F80
FE3F80
3E0F80
3E0F80
3E0F80
3E0F80
3E0F80
3E0F80
3E0F80
3E0F80
3E1F80
3FFFC0
3FFFF0
1FF7F0
07C7F0
ENDCHAR

STARTCHAR v
ENCODING 118
SWIDTH 600 0
DWIDTH 20 0
BBX 20 16 0 0
BITMAP
FFDFF0
FFDFF0
FFDFF0
3F07C0
3F0780
1F8780
1F8F00
0F8F00
0FDE00
07DE00
07EE00
03FC00
03FC00
01F800
01F800
00F000
ENDCHAR

STARTCHAR w
ENCODING 119
SWIDTH 800 0
DWIDTH 26 0
BBX 26 16 0 0
BITMAP
FFBFDFC0
FFBFDFC0
FFBFDFC0
3E1F0F80
3F1F0F00
1F0F8F00
1F1F8E00
1F9F9E00
0F9FDE00
0FBBDC00
0FDBFC00
07F3FC00
07F3F800
03F1F800
03E1F000
03E0F000
ENDCHAR

STARTCHAR x
ENCODING 120
SWIDTH 600 0
DWIDTH 20 0
BBX 20 16 0 0
BITMAP
7FEFE0
7FEFE0
7FEFE0
3F87C0
1FC700
0FCF00
07FE00
03FC00
07FC00
077E00
0E3F00
1E1F80
3C1FC0
FF3FF0
FF3FF0
FF3FF0
ENDCHAR

STARTCHAR y
ENCODING 121
SWIDTH 620 0
DWIDTH 20 0
BBX 20 23 0 -7
BITMAP
FFCFF0
FFCFF0
FFCFF0
3F03C0
1F83C0
1F8780
0FC780
0FCF00
07CF00
07EE00
03FE00
03FC00
01FC00
01F800
00F800
00F000
00F000
01E000
79E000
7FC000
7FC000
7F8000
1E0000
ENDCHAR

STARTCHAR z
ENCODING 122
SWIDTH 560 0
DWIDTH 18 0
BBX 17 16 1 0
BITMAP
3FFF00
3FFF00
7FFF00
7C7F00
F0FE00
71FC00
13F800
07F000
0FE000
1FC200
3F8380
7F0780
FE1F00
FFFF00
FFFF00
FFFE00
ENDCHAR

STARTCHAR braceleft
ENCODING 123
SWIDTH 320 0
DWIDTH 11 0
BBX 8 29 2 -6
BITMAP
03
0E
1C
38
38
38
3C
3C
1C
1C
1C
1C
38
60
80
70
38
1C
1C
1C
3C
3C
3C
3C
38
38
1C
0E
03
ENDCHAR

STARTCHAR bar
ENCODING 124
SWIDTH 600 0
DWIDTH 20 0
BBX 4 31 8 -7
BITMAP
F0
F0
F0
F0
F0
F0
F0
F0
F0
F0
F0
F0
F0
F0
F0
F0
F0
F0
F0
F0
F0
F0
F0
F0
F0
F0
F0
F0
F0
F0
F0
ENDCHAR

STARTCHAR braceright
ENCODING 125
SWIDTH 320 0
DWIDTH 11 0
BBX 8 29 1 -6
BITMAP
C0
70
38
1C
1C
1C
3C
3C
3C
38
38
38
1C
06
01
06
1C
38
38
38
3C
3C
3C
1C
1C
1C
38
70
C0
ENDCHAR

STARTCHAR asciitilde
ENCODING 126
SWIDTH 600 0
DWIDTH 20 0
BBX 16 7 2 8
BITMAP
0002
3E02
7FC7
FFFE
E1FE
C07C
4000
ENDCHAR

STARTCHAR space
ENCODING 160
SWIDTH 340 0
DWIDTH 14 0
BBX 0 0 0 0
BITMAP
ENDCHAR

STARTCHAR Aogonek
ENCODING 161
SWIDTH 720 0
DWIDTH 24 0
BBX 24 28 0 -5
BITMAP
007E00
007E00
007E00
00FF00
00FF00
01FF80
01EF80
01EF80
03CFC0
03CFC0
0787E0
0787E0
07FFE0
0FFFF0
0FFFF0
1F01F8
1E01F8
1E01F8
3E01FC
FF07FE
FF87FF
FF87FF
FF87DF
000030
000070
000072
00007E
00003C
ENDCHAR

STARTCHAR afii240
ENCODING 162
SWIDTH 556 0
DWIDTH 18 0
BBX 17 15 2 0
BITMAP
FE7F00
7C1C00
7C1800
7C2000
7C4000
7CC000
7DE000
7DE000
7DF000
7CF800
7CF800
7C7C00
7C3E00
7C3F00
FE7F80
ENDCHAR

STARTCHAR Rcommaaccent
ENCODING 163
SWIDTH 780 0
DWIDTH 26 0
BBX 24 32 2 -9
BITMAP
FFFF80
FFFFE0
FFFFF8
7FFFF8
3F01FC
3F00FC
3F00FC
3F00FC
3F00FC
3F03F8
3FFFF0
3FFFE0
3FFF80
3F3F00
3F1F80
3F0FC0
3F0FE0
3F07F0
3F03F8
3F03FC
FFE1FF
FFE0FF
FFE07F
000000
000000
003800
007C00
007C00
000C00
001800
003000
001000
ENDCHAR

STARTCHAR currency
ENCODING 164
SWIDTH 600 0
DWIDTH 20 0
BBX 17 17 1 3
BITMAP
200200
77E700
FFFF80
7FFF00
3E3E00
380F00
780F00
700700
700700
700700
780F00
380F00
3E3E00
7FFF00
FFFF80
73E700
200200
ENDCHAR

STARTCHAR Itilde
ENCODING 165
SWIDTH 400 0
DWIDTH 13 0
BBX 12 30 1 0
BITMAP
1C20
7FF0
FFE0
FFE0
0780
0000
0000
7FF0
7FF0
7FF0
1F80
1F80
1F80
1F80
1F80
1F80
1F80
1F80
1F80
1F80
1F80
1F80
1F80
1F80
1F80
1F80
1F80
7FF0
7FF0
7FF0
ENDCHAR

STARTCHAR Lcommaaccent
ENCODING 166
SWIDTH 640 0
DWIDTH 21 0
BBX 20 31 2 -8
BITMAP
FFE000
FFE000
FFE000
3F0000
3F0000
3F0000
3F0000
3F0000
3F0000
3F0000
3F0000
3F0000
3F0000
3F0040
3F00F0
3F00E0
3F01E0
3F03C0
3F0FC0
7FFFC0
FFFF80
FFFF80
FFFF80
000000
01C000
03E000
01E000
00E000
00C000
018000
008000
ENDCHAR

STARTCHAR section
ENCODING 167
SWIDTH 600 0
DWIDTH 20 0
BBX 17 28 1 -5
BITMAP
07F800
1FFE00
3FFF00
3E3F00
7C1F80
7C0F00
7E0700
3FC000
1FF800
0FFE00
1FFF00
3DFF80
7C1F80
7C0F80
7F0780
3FE780
3FFF00
1FFE00
07FF00
00FF80
303F80
780F80
7C0F80
FC0F80
7E1F00
7FFE00
1FFC00
07F000
ENDCHAR

STARTCHAR hungarumlaut
ENCODING 168
SWIDTH 440 0
DWIDTH 15 0
BBX 10 6 3 18
BITMAP
71C0
73C0
7380
E380
C300
8200
ENDCHAR

STARTCHAR Scaron
ENCODING 169
SWIDTH 660 0
DWIDTH 22 0
BBX 20 30 1 0
BITMAP
070600
0FDF00
07FE00
01FC00
00F000
002000
000000
03F180
0FFFC0
1FFFC0
3FFFC0
7E0FC0
7C03E0
7C01E0
7F01E0
7FE080
3FFC00
1FFF80
0FFFC0
03FFE0
307FF0
F00FF0
7803F0
7C01F0
7E01F0
7F83E0
7FFFE0
3FFFC0
3BFF00
387C00
ENDCHAR

STARTCHAR Emacron
ENCODING 170
SWIDTH 720 0
DWIDTH 24 0
BBX 22 28 2 0
BITMAP
03FF00
03FF00
03FF00
000000
000000
FFFFC0
FFFFC0
FFFFE0
3FFFE0
3F03E0
3F01F0
3F1CF0
3F1C78
3F1C40
3F3C00
3FFC00
3FFC00
3FFC00
3F1C00
3F1C3C
3F1C38
3F0078
3F00F8
3F03F0
3FFFF0
FFFFE0
FFFFE0
FFFFE0
ENDCHAR

STARTCHAR Gcommaaccent
ENCODING 171
SWIDTH 780 0
DWIDTH 26 0
BBX 24 31 2 -8
BITMAP
00F860
07FF60
0FFFF0
1FFFF0
3F83F0
7F00F0
7E00F8
7E0078
FC0020
FC0000
FC0000
FC07FF
FC07FF
FC07FF
FC00FC
7E00F8
7E00F8
7F00F8
3F83F8
1FFFF8
0FFFF8
07FF78
00F838
000000
003800
007C00
003C00
000C00
001800
003000
001000
ENDCHAR

STARTCHAR afii237
ENCODING 172
SWIDTH 667 0
DWIDTH 22 0
BBX 19 22 2 0
BITMAP
FFFFE0
E1F0E0
C1F060
81F020
81F020
81F020
01F000
01F000
01F000
01F000
FFFFE0
01F000
01F000
01F000
01F000
01F000
01F000
01F000
01F000
01F000
03F800
0FFE00
ENDCHAR

STARTCHAR hyphen
ENCODING 173
SWIDTH 360 0
DWIDTH 12 0
BBX 8 4 2 6
BITMAP
FF
FF
FF
FF
ENDCHAR

STARTCHAR Zcaron
ENCODING 174
SWIDTH 640 0
DWIDTH 21 0
BBX 20 30 1 0
BITMAP
060E00
0FDF00
07FE00
03F800
00F000
004000
000000
1FFFE0
3FFFE0
3FFFE0
7FEFC0
7C1FC0
781F80
F03F00
E07F00
E0FE00
00FC00
01F800
03F800
07F000
07E000
0FC060
1FC0F0
3F80E0
3F01E0
7F07E0
FE1FC0
FFFFC0
FFFFC0
FFFF80
ENDCHAR

STARTCHAR macron
ENCODING 175
SWIDTH 460 0
DWIDTH 15 0
BBX 11 3 2 19
BITMAP
FFE0
FFE0
FFE0
ENDCHAR

STARTCHAR degree
ENCODING 176
SWIDTH 400 0
DWIDTH 13 0
BBX 9 9 2 14
BITMAP
3E00
7F00
E380
C180
C180
C180
6380
7F00
1E00
ENDCHAR

STARTCHAR aogonek
ENCODING 177
SWIDTH 580 0
DWIDTH 19 0
BBX 18 21 1 -5
BITMAP
0FF000
3FF800
7FFC00
7E3E00
7C3E00
783E00
007E00
0FFE00
3FFE00
7F3E00
FC3E00
F83E00
FC7E00
FFFF80
7FDF80
3F0F80
000600
000C00
000EC0
000F80
000700
ENDCHAR

STARTCHAR ogonek
ENCODING 178
SWIDTH 320 0
DWIDTH 11 0
BBX 6 5 2 -5
BITMAP
70
60
E4
FC
78
ENDCHAR

STARTCHAR rcommaaccent
ENCODING 179
SWIDTH 460 0
DWIDTH 15 0
BBX 13 25 2 -9
BITMAP
0E70
FEF8
FEF8
FFF8
FFF8
3E20
3E00
3E00
3E00
3E00
3E00
3E00
3E00
FFC0
FFC0
FFC0
0000
0000
0E00
1F00
0F00
0300
0600
0C00
0400
ENDCHAR

STARTCHAR acute
ENCODING 180
SWIDTH 400 0
DWIDTH 13 0
BBX 9 6 2 18
BITMAP
0F00
1F80
3F80
7F00
FE00
4000
ENDCHAR

STARTCHAR itilde
ENCODING 181
SWIDTH 360 0
DWIDTH 12 0
BBX 12 23 0 0
BITMAP
1C20
3FF0
FFF0
7FE0
0380
0000
0000
0780
3F80
3F80
3F80
0F80
0F80
0F80
0F80
0F80
0F80
0F80
0F80
0F80
3FF0
3FF0
3FF0
ENDCHAR

STARTCHAR lcommaaccent
ENCODING 182
SWIDTH 340 0
DWIDTH 11 0
BBX 10 33 1 -9
BITMAP
0600
7E00
FE00
FE00
FE00
3E00
3E00
3E00
3E00
3E00
3E00
3E00
3E00
3E00
3E00
3E00
3E00
3E00
3E00
3E00
3E00
FFC0
FFC0
FFC0
0000
0000
1C00
3E00
1E00
0600
0C00
1800
0800
ENDCHAR

STARTCHAR caron
ENCODING 183
SWIDTH 500 0
DWIDTH 17 0
BBX 12 6 2 18
BITMAP
6020
FDF0
7FF0
1FC0
0F00
0200
ENDCHAR

STARTCHAR commaaccent
ENCODING 184
SWIDTH 333 0
DWIDTH 11 0
BBX 5 7 3 -9
BITMAP
70
F8
78
18
30
60
20
ENDCHAR

STARTCHAR scaron
ENCODING 185
SWIDTH 520 0
DWIDTH 17 0
BBX 15 24 1 0
BITMAP
1010
3C70
7FF8
1FF0
07C0
0300
0000
0000
1FB8
3FF8
7FF8
F87C
F83C
FF10
7FC0
7FF8
1FFC
27FE
F0FE
F83E
FC3E
7FFC
7FF8
33F0
ENDCHAR

STARTCHAR emacron
ENCODING 186
SWIDTH 580 0
DWIDTH 19 0
BBX 17 22 1 0
BITMAP
1FFC00
1FFC00
1FFC00
000000
000000
000000
07F800
1FFE00
3FFF00
7E1F00
7C0F80
FFFF80
FFFF80
FFFF80
FC0000
FC0000
7E0300
7F0780
3FFF80
1FFF00
0FFC00
01F000
ENDCHAR

STARTCHAR gcommaaccent
ENCODING 187
SWIDTH 580 0
DWIDTH 19 0
BBX 19 32 1 -7
BITMAP
004000
00C000
018000
030000
03E000
03E000
01C000
000000
0001C0
07F3E0
1FFFE0
3FFFC0
7E3E00
7C1F00
7C1F00
7C1F00
7E3F00
3FFE00
1FFC00
3FF000
780000
7F0000
FFFE00
7FFF80
1FFFC0
3FFFE0
7807E0
F803E0
FC07C0
7FFFC0
3FFF00
0FF800
ENDCHAR

STARTCHAR afii253
ENCODING 188
SWIDTH 333 0
DWIDTH 11 0
BBX 10 21 0 0
BITMAP
0200
0600
0E00
0E00
1E00
7FC0
FFC0
3E00
3E00
3E00
3E00
FFC0
3E00
3E00
3E00
3E00
3E00
3E40
3E40
1F80
0F00
ENDCHAR

STARTCHAR afii238
ENCODING 189
SWIDTH 757 0
DWIDTH 25 0
BBX 23 22 1 0
BITMAP
FF1F80
1F31E0
1F60F0
1FC0F8
1F8078
1F807C
1F007C
1F007C
1F007E
1F007E
1F007E
1F007E
1F007E
1F007E
1F007E
1F007C
1F007C
1F0E78
1F1E78
1F1E70
3F0E60
FFEFC0
ENDCHAR

STARTCHAR zcaron
ENCODING 190
SWIDTH 560 0
DWIDTH 18 0
BBX 17 24 1 0
BITMAP
1C1C00
1F7E00
1FFC00
07F000
01C000
008000
000000
000000
3FFF00
3FFF00
7FFF00
7C7F00
F0FE00
71FC00
13F800
07F000
0FE000
1FC200
3F8380
7F0780
FE1F00
FFFF00
FFFF00
FFFE00
ENDCHAR

STARTCHAR afii254
ENCODING 191
SWIDTH 556 0
DWIDTH 18 0
BBX 15 22 1 -7
BITMAP
FCF8
7DFC
7E3E
7C3E
7C3E
7C3E
7C3E
7C3E
7C3E
7C3E
7C3E
7C3E
7C3E
7C3E
FE3E
003E
003E
023E
073E
073C
0738
01F0
ENDCHAR

STARTCHAR Amacron
ENCODING 192
SWIDTH 720 0
DWIDTH 24 0
BBX 24 28 0 0
BITMAP
01FF80
01FF80
01FF80
000000
000000
007E00
007E00
00FE00
00FF00
00FF00
01FF80
01EF80
01CF80
03CFC0
03CFC0
0787E0
0787E0
07FFE0
0FFFF0
0FFFF0
1E03F0
1E01F8
1E01F8
3C01FC
FF07FE
FF87FF
FF87FF
FF87FF
ENDCHAR

STARTCHAR Aacute
ENCODING 193
SWIDTH 720 0
DWIDTH 24 0
BBX 24 30 0 0
BITMAP
000F00
003F00
007F00
00FF00
00F800
008000
000000
007E00
007E00
00FE00
00FF00
00FF00
01FF80
01EF80
01CF80
03CFC0
03CFC0
0787E0
0787E0
07FFE0
0FFFF0
0FFFF0
1E03F0
1E01F8
1E01F8
3C01FC
FF07FE
FF87FF
FF87FF
FF87FF
ENDCHAR

STARTCHAR Acircumflex
ENCODING 194
SWIDTH 720 0
DWIDTH 24 0
BBX 24 30 0 0
BITMAP
001800
007E00
01FF80
03FFC0
01C380
010080
000000
007E00
007E00
00FE00
00FF00
00FF00
01FF80
01EF80
01CF80
03CFC0
03CFC0
0787E0
0787E0
07FFE0
0FFFF0
0FFFF0
1E03F0
1E01F8
1E01F8
3C01FC
FF07FE
FF87FF
FF87FF
FF87FF
ENDCHAR

STARTCHAR Atilde
ENCODING 195
SWIDTH 720 0
DWIDTH 24 0
BBX 24 30 0 0
BITMAP
007080
01FFC0
03FF80
03FF80
009E00
000000
000000
007E00
007E00
00FE00
00FF00
00FF00
01FF80
01EF80
01CF80
03CFC0
03CFC0
0787E0
0787E0
07FFE0
0FFFF0
0FFFF0
1E03F0
1E01F8
1E01F8
3C01FC
FF07FE
FF87FF
FF87FF
FF87FF
ENDCHAR

STARTCHAR Adieresis
ENCODING 196
SWIDTH 720 0
DWIDTH 24 0
BBX 24 29 0 0
BITMAP
038380
07C7C0
07C7C0
03C7C0
010100
000000
007C00
00FE00
00FE00
00FE00
01FF00
01FF00
03DF80
03DF80
03CF80
078FC0
078FC0
0F07E0
0FFFE0
0FFFE0
1FFFF0
1E03F0
3E03F8
3C01F8
3C01F8
FE07FE
FF07FF
FF07FF
FF07FF
ENDCHAR

STARTCHAR Aring
ENCODING 197
SWIDTH 720 0
DWIDTH 24 0
BBX 23 32 0 0
BITMAP
003800
007C00
00C600
00C600
00C600
007C00
003800
000000
000000
007C00
007E00
00FE00
00FE00
01FF00
01FF00
01DF80
03DF80
03CF80
078FC0
078FC0
0707C0
0FFFE0
0FFFE0
1FFFF0
1E03F0
1E03F0
3C01F8
3C01F8
FE07FC
FF07FE
FF07FE
FF07FE
ENDCHAR

STARTCHAR AE
ENCODING 198
SWIDTH 1140 0
DWIDTH 38 0
BBX 37 23 0 0
BITMAP
01FFFFFFC0
01FFFFFFC0
01FFFFFFE0
00FFFFFFE0
00787E03E0
00F87E01F0
00F07E00F0
01F07E1C70
01E07E1C40
03E07E3C00
03C07FFC00
03FFFFFC00
07FFFFFC00
07FFFE1C00
0F807E1C38
0F007E1C38
1F007E0078
1E007E00F0
3E007E03F0
7E00FFFFF0
FF81FFFFE0
FF81FFFFE0
FF81FFFFE0
ENDCHAR

STARTCHAR Iogonek
ENCODING 199
SWIDTH 400 0
DWIDTH 13 0
BBX 11 28 1 -5
BITMAP
FFE0
FFE0
FFE0
3F00
3F00
3F00
3F00
3F00
3F00
3F00
3F00
3F00
3F00
3F00
3F00
3F00
3F00
3F00
3F00
3F00
FFE0
FFE0
FFE0
0C00
1800
1900
1F00
1E00
ENDCHAR

STARTCHAR Ccaron
ENCODING 200
SWIDTH 740 0
DWIDTH 24 0
BBX 23 30 1 0
BITMAP
020100
03CF80
07FF80
01FE00
007C00
003000
000000
00FC70
03FFB0
0FFFF0
1FFFF8
3F81F8
7F00F8
7E0078
7E003C
FC003C
FC0000
FC0000
FC0000
FC0000
FE0000
FE0000
7E0018
7F003E
3F807C
3FC1F8
1FFFF0
0FFFE0
03FF80
00FE00
ENDCHAR

STARTCHAR Eacute
ENCODING 201
SWIDTH 720 0
DWIDTH 24 0
BBX 22 30 2 0
BITMAP
003C00
007E00
00FE00
03FC00
01F000
010000
000000
FFFFC0
FFFFC0
FFFFE0
3FFFE0
3F03E0
3F01F0
3F1CF0
3F1C78
3F1C40
3F3C00
3FFC00
3FFC00
3FFC00
3F1C00
3F1C3C
3F1C38
3F0078
3F00F8
3F03F0
3FFFF0
FFFFE0
FFFFE0
FFFFE0
ENDCHAR

STARTCHAR Eogonek
ENCODING 202
SWIDTH 720 0
DWIDTH 24 0
BBX 22 28 2 -5
BITMAP
FFFFC0
FFFFC0
FFFFE0
3FFFE0
3F03E0
3F00F0
3F1CF0
3F1C78
3F1C40
3F3C00
3FFC00
3FFC00
3FFC00
3F1C00
3F1C3C
3F1C38
3F0078
3F00F8
3F03F0
3FFFF0
FFFFE0
FFFFE0
FFFDE0
000300
000700
000720
0007E0
0003C0
ENDCHAR

STARTCHAR Edieresis
ENCODING 203
SWIDTH 720 0
DWIDTH 24 0
BBX 22 29 2 0
BITMAP
070700
0F8F80
0F8F80
0F8F80
020200
000000
FFFFC0
FFFFC0
FFFFE0
3FFFE0
3F03E0
3F01F0
3F1CF0
3F1C78
3F1C40
3F3C00
3FFC00
3FFC00
3FFC00
3F1C00
3F1C3C
3F1C38
3F0078
3F00F8
3F03F0
3FFFF0
FFFFE0
FFFFE0
FFFFE0
ENDCHAR

STARTCHAR Edotaccent
ENCODING 204
SWIDTH 720 0
DWIDTH 24 0
BBX 22 29 2 0
BITMAP
007000
007800
00F800
007800
002000
000000
FFFFC0
FFFFC0
FFFFE0
3FFFE0
3F03E0
3F01F0
3F1CF0
3F1C78
3F1C40
3F3C00
3FFC00
3FFC00
3FFC00
3F1C00
3F1C3C
3F1C38
3F0078
3F00F8
3F03F0
3FFFF0
FFFFE0
FFFFE0
FFFFE0
ENDCHAR

STARTCHAR Iacute
ENCODING 205
SWIDTH 400 0
DWIDTH 13 0
BBX 11 31 2 0
BITMAP
0300
0F80
1F80
3F80
7F00
7800
0000
0000
FFE0
FFE0
FFE0
3F00
3F00
3F00
3F00
3F00
3F00
3F00
3F00
3F00
3F00
3F00
3F00
3F00
3F00
3F00
3F00
3F00
FFE0
FFE0
FFE0
ENDCHAR

STARTCHAR Icircumflex
ENCODING 206
SWIDTH 400 0
DWIDTH 13 0
BBX 12 31 1 0
BITMAP
0200
0F00
1F80
7FE0
FFF0
6060
0000
0000
7FF0
7FF0
7FF0
1F80
1F80
1F80
1F80
1F80
1F80
1F80
1F80
1F80
1F80
1F80
1F80
1F80
1F80
1F80
1F80
1F80
7FF0
7FF0
7FF0
ENDCHAR

STARTCHAR Imacron
ENCODING 207
SWIDTH 400 0
DWIDTH 13 0
BBX 11 28 2 0
BITMAP
FFC0
FFC0
FFC0
0000
0000
FFE0
FFE0
FFE0
3F00
3F00
3F00
3F00
3F00
3F00
3F00
3F00
3F00
3F00
3F00
3F00
3F00
3F00
3F00
3F00
3F00
FFE0
FFE0
FFE0
ENDCHAR

STARTCHAR Eth
ENCODING 208
SWIDTH 780 0
DWIDTH 26 0
BBX 23 23 2 0
BITMAP
FFFE00
FFFFC0
FFFFE0
3FFFF8
3F03F8
3F01FC
3F00FC
3F00FE
3F007E
3F007E
FFF07E
FFF07E
3F007E
3F007E
3F00FE
3F00FC
3F01FC
3F03F8
3F07F8
7FFFF0
FFFFC0
FFFF80
FFF800
ENDCHAR

STARTCHAR Ncommaaccent
ENCODING 209
SWIDTH 740 0
DWIDTH 24 0
BBX 23 32 1 -9
BITMAP
FFC3FE
FFC3FE
FFE3FE
1FE0F0
1FF0F0
1FF0F0
1EF8F0
1EF8F0
1EFCF0
1E7CF0
1E7EF0
1E3EF0
1E3F70
1E1FF0
1E1FF0
1E0FF0
1E0FF0
1E07F0
1E07F0
1E03F0
FFC3F0
FFC1F0
FFC1F0
000000
000000
003800
007C00
007C00
001C00
001800
003000
001000
ENDCHAR

STARTCHAR Omacron
ENCODING 210
SWIDTH 800 0
DWIDTH 26 0
BBX 24 28 1 0
BITMAP
01FF80
01FF80
01FF80
000000
000000
007E00
03FFC0
0FFFF0
1FFFF8
3F81FC
7F00FE
7E007E
7E007F
FE003F
FC003F
FC003F
FC003F
FC003F
FC003F
FE003F
7E007F
7E007E
3F00FE
3F81FC
1FFFF8
0FFFF0
03FFC0
007E00
ENDCHAR

STARTCHAR Kcommaaccent
ENCODING 211
SWIDTH 800 0
DWIDTH 26 0
BBX 25 32 2 -9
BITMAP
FFC7FF00
FFC7FF00
FFC7FF00
3F01FC00
3F01F000
3F03E000
3F0FC000
3F1F8000
3F3F0000
3F7E0000
3F7F0000
3FFF8000
3FFF8000
3FCFC000
3F8FE000
3F07F000
3F03F000
3F03F800
3F00FC00
3F01FE00
FFC7FF80
FFC7FF80
FFC7FF80
00000000
00000000
00380000
007C0000
003C0000
001C0000
00180000
00300000
00100000
ENDCHAR

STARTCHAR Ocircumflex
ENCODING 212
SWIDTH 800 0
DWIDTH 26 0
BBX 24 30 1 0
BITMAP
001800
003C00
00FF00
03FFC0
03E7C0
018180
000000
007E00
03FFC0
0FFFF0
1FFFF8
3F81FC
7F00FE
7E007E
7E007F
FE003F
FC003F
FC003F
FC003F
FC003F
FC003F
FE003F
7E007F
7E007E
3F00FE
3F81FC
1FFFF8
0FFFF0
03FFC0
007E00
ENDCHAR

STARTCHAR Otilde
ENCODING 213
SWIDTH 800 0
DWIDTH 26 0
BBX 24 29 1 0
BITMAP
007080
01FFC0
01FF80
03FF80
000E00
000000
007E00
03FFC0
0FFFF0
1FFFF8
3F81FC
7F00FE
7E007E
7E007F
FE003F
FC003F
FC003F
FC003F
FC003F
FC003F
FE003F
7E007F
7E007E
3F00FE
3F81FC
1FFFF8
0FFFF0
03FFC0
007E00
ENDCHAR

STARTCHAR Odieresis
ENCODING 214
SWIDTH 800 0
DWIDTH 26 0
BBX 24 29 1 0
BITMAP
038380
07C7C0
07C7C0
07C7C0
038380
000000
007E00
03FFC0
0FFFF0
1FFFF8
3F81FC
7F00FE
7E007E
7E007F
FE003F
FC003F
FC003F
FC003F
FC003F
FC003F
FE003F
7E007F
7E007E
3F00FE
3F81FC
1FFFF8
0FFFF0
03FFC0
007E00
ENDCHAR

STARTCHAR multiply
ENCODING 215
SWIDTH 600 0
DWIDTH 20 0
BBX 15 15 2 4
BITMAP
2004
F00C
781E
3C3C
1E78
0F70
07E0
03C0
07E0
0FF0
1E78
3C3C
F81E
700E
2004
ENDCHAR

STARTCHAR Oslash
ENCODING 216
SWIDTH 800 0
DWIDTH 26 0
BBX 24 23 1 0
BITMAP
007E02
03FFC7
0FFFF6
1FFFFC
3F81FC
7F00FE
7E00FE
7E01FE
FE03BF
FC0F3F
FC1E3F
FC3C3F
FC783F
FCF03F
FEC07F
7F807F
7F007E
3F00FE
3F81FC
3FFFF8
77FFF0
E3FFC0
407E00
ENDCHAR

STARTCHAR Uogonek
ENCODING 217
SWIDTH 740 0
DWIDTH 24 0
BBX 23 28 1 -5
BITMAP
FFC7FE
FFC7FE
FFC7FE
3F00F0
3F00F0
3F00F0
3F00F0
3F00F0
3F00F0
3F00F0
3F00F0
3F00F0
3F00F0
3F00F0
3F00F0
3F00F0
3F00F0
1F81F0
1FC3E0
0FFFE0
07FFC0
03FF00
00FC00
003000
007000
007200
007E00
003C00
ENDCHAR

STARTCHAR Uacute
ENCODING 218
SWIDTH 740 0
DWIDTH 24 0
BBX 23 31 1 0
BITMAP
000C00
003E00
007E00
00FE00
01FC00
01F000
000000
000000
FFE7FE
FFE7FE
FFE7FE
3F00F0
3F00F0
3F00F0
3F00F0
3F00F0
3F00F0
3F00F0
3F00F0
3F00F0
3F00F0
3F00F0
3F00F0
3F00F0
3F00F0
1F81E0
1FC3E0
0FFFC0
07FFC0
03FF00
00FC00
ENDCHAR

STARTCHAR Ucircumflex
ENCODING 219
SWIDTH 740 0
DWIDTH 24 0
BBX 23 31 1 0
BITMAP
001000
007800
00FC00
03FF00
07FF80
038300
000000
000000
FFE7FE
FFE7FE
FFE7FE
3F00F0
3F00F0
3F00F0
3F00F0
3F00F0
3F00F0
3F00F0
3F00F0
3F00F0
3F00F0
3F00F0
3F00F0
3F00F0
3F00F0
1F81E0
1FC3E0
0FFFC0
07FFC0
03FF00
00FC00
ENDCHAR

STARTCHAR Udieresis
ENCODING 220
SWIDTH 740 0
DWIDTH 24 0
BBX 23 29 1 0
BITMAP
038380
07C7C0
07C7C0
038380
010100
000000
FFE7FE
FFE7FE
FFE7FE
3F00F0
3F00F0
3F00F0
3F00F0
3F00F0
3F00F0
3F00F0
3F00F0
3F00F0
3F00F0
3F00F0
3F00F0
3F00F0
3F00F0
1F81E0
1FC3E0
0FFFC0
07FFC0
03FF00
00FC00
ENDCHAR

STARTCHAR Utilde
ENCODING 221
SWIDTH 740 0
DWIDTH 24 0
BBX 23 30 1 0
BITMAP
007080
01FFC0
01FF80
03FF80
001E00
000000
000000
FFE7FE
FFE7FE
FFE7FE
3F00F0
3F00F0
3F00F0
3F00F0
3F00F0
3F00F0
3F00F0
3F00F0
3F00F0
3F00F0
3F00F0
3F00F0
3F00F0
3F00F0
1F81F0
1FC3E0
0FFFC0
07FFC0
03FF00
00FC00
ENDCHAR

STARTCHAR Umacron
ENCODING 222
SWIDTH 740 0
DWIDTH 24 0
BBX 23 29 1 0
BITMAP
03FF00
03FF00
03FF00
000000
000000
000000
FFE7FE
FFE7FE
FFE7FE
3F00F0
3F00F0
3F00F0
3F00F0
3F00F0
3F00F0
3F00F0
3F00F0
3F00F0
3F00F0
3F00F0
3F00F0
3F00F0
3F00F0
1F81E0
1FC3E0
0FFFC0
07FFC0
03FF00
00FC00
ENDCHAR

STARTCHAR germandbls
ENCODING 223
SWIDTH 660 0
DWIDTH 22 0
BBX 19 24 2 0
BITMAP
03FC00
0FFE00
1FFF00
1F1F80
3E0F80
3E0F80
3E3F80
3E7F00
FEF800
FEF000
FEF800
3EFC00
3EFF00
3E7F80
3E3FC0
3E1FE0
3E0FE0
3E03E0
3E43E0
3EF1E0
3EF3E0
FEFFC0
FEFF80
FE3F00
ENDCHAR

STARTCHAR amacron
ENCODING 224
SWIDTH 580 0
DWIDTH 19 0
BBX 18 22 1 0
BITMAP
1FFC00
1FFC00
1FFC00
000000
000000
000000
0FF000
3FFC00
7FFC00
7C7E00
7C3E00
783E00
007E00
0FFE00
3FFE00
7F3E00
FC3E00
F83E00
FCFE00
FFFFC0
7FDFC0
3F0FC0
ENDCHAR

STARTCHAR aacute
ENCODING 225
SWIDTH 580 0
DWIDTH 19 0
BBX 18 24 1 0
BITMAP
007000
00F800
01F800
03F800
0FF000
070000
000000
000000
0FF000
3FFC00
7FFC00
7C7E00
7C3E00
783E00
007E00
0FFE00
3FFE00
7F3E00
FC3E00
F83E00
FCFE00
FFFFC0
7FDFC0
3F0FC0
ENDCHAR

STARTCHAR acircumflex
ENCODING 226
SWIDTH 580 0
DWIDTH 19 0
BBX 18 24 1 0
BITMAP
008000
01E000
07F000
1FFC00
1F7E00
0C0C00
000000
000000
0FF000
3FFC00
7FFC00
7C7E00
7C3E00
783E00
007E00
0FFE00
3FFE00
7F3E00
FC3E00
F83E00
FCFE00
FFFFC0
7FDFC0
3F0FC0
ENDCHAR

STARTCHAR atilde
ENCODING 227
SWIDTH 580 0
DWIDTH 19 0
BBX 18 23 1 0
BITMAP
038400
0FFE00
1FFC00
1FF800
00F000
000000
000000
0FF000
3FFC00
7FFC00
7C7E00
7C3E00
783E00
007E00
0FFE00
3FFE00
7F3E00
FC3E00
F83E00
FCFE00
FFFFC0
7FDFC0
3F0FC0
ENDCHAR

STARTCHAR adieresis
ENCODING 228
SWIDTH 580 0
DWIDTH 19 0
BBX 18 23 1 0
BITMAP
1C1C00
3E3E00
3E3E00
3E3E00
1C1C00
000000
000000
0FF000
1FFC00
3FFC00
7E3E00
7C3E00
783E00
007E00
0FFE00
3FFE00
7F3E00
FC3E00
F83E00
FCFE00
FFFFC0
7FDFC0
3F0FC0
ENDCHAR

STARTCHAR aring
ENCODING 229
SWIDTH 580 0
DWIDTH 19 0
BBX 18 25 1 0
BITMAP
01C000
03E000
063000
063000
063000
03E000
01C000
000000
000000
07F000
1FFC00
3FFC00
7E3E00
7C3E00
783E00
007E00
0FFE00
3FFE00
7F3E00
FC3E00
F83E00
FCFE00
FFFFC0
7FDFC0
3F0FC0
ENDCHAR

STARTCHAR ae
ENCODING 230
SWIDTH 880 0
DWIDTH 29 0
BBX 26 16 1 0
BITMAP
0FF1FC00
3FFFFF00
7FFFFF80
7C3F0F80
783E07C0
783FFFC0
07FFFFC0
3FFFFFC0
7FDE0000
FC3E0000
F83F0180
F83F83C0
FCFFFFC0
FFE7FF80
7FC3FE00
3F00F800
ENDCHAR

STARTCHAR iogonek
ENCODING 231
SWIDTH 360 0
DWIDTH 12 0
BBX 10 29 2 -5
BITMAP
3C00
7E00
7E00
7E00
3E00
3C00
0000
0600
3E00
FE00
FE00
FE00
3E00
3E00
3E00
3E00
3E00
3E00
3E00
3E00
3E00
FFC0
FFC0
FFC0
1800
3800
3900
3F00
1E00
ENDCHAR

STARTCHAR ccaron
ENCODING 232
SWIDTH 580 0
DWIDTH 19 0
BBX 17 24 1 0
BITMAP
080400
1E3C00
1FFE00
07F800
03E000
00C000
000000
000000
07F800
1FFE00
3FFF00
3F1F80
7E1F80
7C0F80
FC0600
FC0000
FC0000
FC0000
7E0300
7F0780
3FFF80
1FFE00
0FFC00
03F000
ENDCHAR

STARTCHAR eacute
ENCODING 233
SWIDTH 580 0
DWIDTH 19 0
BBX 17 24 1 0
BITMAP
007000
00F800
01F800
03F800
0FF000
078000
000000
000000
07F800
1FFC00
3FFE00
7E1F00
7C0F80
FFFF80
FFFF80
FFFF80
FC0000
FC0000
7E0300
7F0780
3FFF80
1FFF00
0FFC00
01F000
ENDCHAR

STARTCHAR eogonek
ENCODING 234
SWIDTH 580 0
DWIDTH 19 0
BBX 16 21 2 -5
BITMAP
07F0
1FFC
3FFE
7E3E
FC1F
FFFF
FFFF
FFFF
FC00
FC00
FC06
7E0F
3FFF
3FFE
0FF8
03E0
0180
0380
0390
03F0
01E0
ENDCHAR

STARTCHAR edieresis
ENCODING 235
SWIDTH 580 0
DWIDTH 19 0
BBX 17 23 1 0
BITMAP
1C1C00
3E3E00
3E3E00
3E3E00
1C1C00
000000
000000
07F000
1FFC00
3FFE00
7E3F00
7C1F80
FFFF80
FFFF80
FFFF80
FC0000
FC0000
FE0300
7F0F80
3FFF80
1FFE00
0FFC00
03E000
ENDCHAR

STARTCHAR edotaccent
ENCODING 236
SWIDTH 580 0
DWIDTH 19 0
BBX 17 23 1 0
BITMAP
01C000
03E000
03E000
03E000
01C000
000000
000000
07F800
1FFC00
3FFE00
7E1F00
7C0F80
FFFF80
FFFF80
FFFF80
FC0000
FC0000
7E0300
7F0780
3FFF80
1FFF00
0FFC00
03F000
ENDCHAR

STARTCHAR iacute
ENCODING 237
SWIDTH 360 0
DWIDTH 12 0
BBX 10 24 2 0
BITMAP
0200
0F00
1F80
3F80
FF00
7800
0000
0000
0600
FE00
FE00
FE00
3E00
3E00
3E00
3E00
3E00
3E00
3E00
3E00
3E00
FFC0
FFC0
FFC0
ENDCHAR

STARTCHAR icircumflex
ENCODING 238
SWIDTH 360 0
DWIDTH 12 0
BBX 12 23 1 0
BITMAP
0E00
3F80
7FC0
FFF0
E0E0
0000
0000
0300
7F00
7F00
7F00
1F00
1F00
1F00
1F00
1F00
1F00
1F00
1F00
1F00
7FE0
7FE0
7FE0
ENDCHAR

STARTCHAR imacron
ENCODING 239
SWIDTH 360 0
DWIDTH 12 0
BBX 11 22 1 0
BITMAP
FFE0
FFE0
FFE0
0000
0000
0000
0300
7F00
7F00
7F00
1F00
1F00
1F00
1F00
1F00
1F00
1F00
1F00
1F00
7FE0
7FE0
7FE0
ENDCHAR

STARTCHAR dcroat
ENCODING 240
SWIDTH 640 0
DWIDTH 21 0
BBX 20 23 1 0
BITMAP
000780
007F80
007F80
000F80
03FFF0
03FFF0
000F80
07CF80
1FFF80
3FFF80
7FFF80
7E1F80
7C0F80
FC0F80
FC0F80
FC0F80
FC0F80
7C0F80
7E1F80
7FFFC0
3FFFF0
1FF7F0
07CFF0
ENDCHAR

STARTCHAR ncommaaccent
ENCODING 241
SWIDTH 680 0
DWIDTH 22 0
BBX 20 25 2 -9
BITMAP
0C7C00
FDFF00
FFFF80
FFFF80
3F0F80
3E0F80
3E0F80
3E0F80
3E0F80
3E0F80
3E0F80
3E0F80
3E0F80
FFBFF0
FFBFF0
FFBFF0
000000
000000
00E000
01F000
00F000
003000
006000
00C000
004000
ENDCHAR

STARTCHAR omacron
ENCODING 242
SWIDTH 620 0
DWIDTH 20 0
BBX 18 22 1 0
BITMAP
0FFC00
0FFC00
0FFC00
000000
000000
000000
03F000
0FFC00
3FFF00
3FFF00
7E1F80
7C0F80
FC0FC0
FC0FC0
FC0FC0
FC0FC0
7C0F80
7E1F80
3FFF00
1FFE00
0FFC00
03F000
ENDCHAR

STARTCHAR kcommaaccent
ENCODING 243
SWIDTH 660 0
DWIDTH 22 0
BBX 20 33 2 -9
BITMAP
060000
7E0000
FE0000
FE0000
FE0000
3E0000
3E0000
3E0000
3E7FE0
3E7FE0
3E7FE0
3E1F80
3E3E00
3E7C00
3FF800
3FFC00
3FFC00
3FBE00
3E3F00
3E1F80
3E1FC0
FFBFF0
FFBFF0
FFBFF0
000000
000000
00E000
01F000
00F000
003000
006000
00C000
004000
ENDCHAR

STARTCHAR ocircumflex
ENCODING 244
SWIDTH 620 0
DWIDTH 20 0
BBX 18 23 1 0
BITMAP
00C000
03F000
0FFC00
1FFE00
0E1C00
000000
000000
03F000
0FFC00
3FFE00
3FFF00
7E1F80
7C0F80
FC0FC0
FC0FC0
FC0FC0
FC0FC0
7C0F80
7E1F80
3FFF00
1FFE00
0FFC00
03F000
ENDCHAR

STARTCHAR otilde
ENCODING 245
SWIDTH 620 0
DWIDTH 20 0
BBX 18 23 1 0
BITMAP
038400
07FE00
1FFC00
0FF800
00F000
000000
000000
03F000
0FFC00
3FFE00
3FFF00
7E1F80
7C0F80
FC0FC0
FC0FC0
FC0FC0
FC0FC0
7C0F80
7E1F80
3FFF00
1FFE00
0FFC00
03F000
ENDCHAR

STARTCHAR odieresis
ENCODING 246
SWIDTH 620 0
DWIDTH 20 0
BBX 19 23 1 0
BITMAP
0E0E00
1F1F00
1F1F00
1F1F00
0E0E00
000000
000000
01F000
0FFE00
1FFF00
3FFF80
7E0FC0
7C07C0
FC07E0
FC07E0
FC07E0
FC07E0
7C0FC0
7E0FC0
3FFF80
1FFF00
0FFE00
01F000
ENDCHAR

STARTCHAR divide
ENCODING 247
SWIDTH 600 0
DWIDTH 20 0
BBX 16 15 2 4
BITMAP
03C0
03C0
03C0
03C0
0000
0000
FFFF
FFFF
FFFF
0000
0000
03C0
03C0
03C0
03C0
ENDCHAR

STARTCHAR oslash
ENCODING 248
SWIDTH 620 0
DWIDTH 20 0
BBX 18 16 1 0
BITMAP
03F080
0FFDC0
3FFF80
3FFF00
7E1F80
7C3FC0
FC7FC0
FCEFC0
FDCFC0
FF8FC0
7F0F80
7E1F80
3FFF00
FFFE00
6FFC00
21F000
ENDCHAR

STARTCHAR uogonek
ENCODING 249
SWIDTH 660 0
DWIDTH 22 0
BBX 20 21 2 -5
BITMAP
FE3F80
FE3F80
FE3F80
3E1F80
3E0F80
3E0F80
3E0F80
3E0F80
3E0F80
3E0F80
3E0F80
3E1F80
3FFFF0
3FFFF0
1FEFF0
078FF0
000300
000700
000720
0007E0
0003C0
ENDCHAR

STARTCHAR uacute
ENCODING 250
SWIDTH 660 0
DWIDTH 22 0
BBX 20 24 1 0
BITMAP
003800
007800
00FC00
03F800
07F800
038000
000000
000000
FE3F80
FE3F80
FE3F80
3E0F80
3E0F80
3E0F80
3E0F80
3E0F80
3E0F80
3E0F80
3E0F80
3E1F80
3FFFF0
3FFFF0
1FE7F0
0787F0
ENDCHAR

STARTCHAR ucircumflex
ENCODING 251
SWIDTH 660 0
DWIDTH 22 0
BBX 20 24 1 0
BITMAP
004000
00E000
03F800
0FFE00
0FBE00
060C00
000000
000000
FE3F80
FE3F80
FE3F80
3E0F80
3E0F80
3E0F80
3E0F80
3E0F80
3E0F80
3E0F80
3E0F80
3E1F80
3FFFF0
3FFFF0
1FE7F0
0787F0
ENDCHAR

STARTCHAR udieresis
ENCODING 252
SWIDTH 660 0
DWIDTH 22 0
BBX 20 23 1 0
BITMAP
0E0E00
1F1F00
1F1F00
1F1F00
0E0E00
000000
000000
FE3F80
FE3F80
FE3F80
3E0F80
3E0F80
3E0F80
3E0F80
3E0F80
3E0F80
3E0F80
3E0F80
3E1F80
3FFFF0
3FFFF0
1FE7F0
0787F0
ENDCHAR

STARTCHAR utilde
ENCODING 253
SWIDTH 660 0
DWIDTH 22 0
BBX 20 24 1 0
BITMAP
01C200
03FF00
0FFE00
07FC00
007800
000000
000000
FE3F80
FE3F80
FE3F80
FE3F80
3E0F80
3E0F80
3E0F80
3E0F80
3E0F80
3E0F80
3E0F80
3E0F80
3E3F80
3FFFF0
1FFFF0
1FE7F0
0787F0
ENDCHAR

STARTCHAR umacron
ENCODING 254
SWIDTH 660 0
DWIDTH 22 0
BBX 20 22 1 0
BITMAP
0FFE00
0FFE00
0FFE00
000000
000000
000000
FE3F80
FE3F80
FE3F80
3E0F80
3E0F80
3E0F80
3E0F80
3E0F80
3E0F80
3E0F80
3E0F80
3E1F80
3FFFF0
3FFFF0
1FE7F0
0787F0
ENDCHAR

STARTCHAR dotaccent
ENCODING 255
SWIDTH 320 0
DWIDTH 11 0
BBX 5 5 3 18
BITMAP
70
F8
F8
F8
70
ENDCHAR
ENDFONT
